<svg id="Layer_3" enable-background="new 0 0 64 64" height="512" viewBox="0 0 64 64" width="512" xmlns="http://www.w3.org/2000/svg"><g><path d="m32 25c-3.859 0-7 3.14-7 7v6c0 3.86 3.141 7 7 7s7-3.14 7-7v-6c0-3.86-3.141-7-7-7zm-5 13v-6c0-1.627.793-3.061 2-3.974v2.146c0 2.091.814 4.057 2.293 5.536 1.101 1.1 1.707 2.564 1.707 4.121v3.07c-.323.066-.658.101-1 .101-2.757 0-5-2.243-5-5zm10 0c0 1.627-.793 3.061-2 3.974v-2.146c0-2.091-.814-4.057-2.293-5.536-1.101-1.1-1.707-2.564-1.707-4.121v-3.07c.323-.066.658-.101 1-.101 2.757 0 5 2.243 5 5z"/><path d="m62 51h-16.613l1.148-3.444c2.963-8.888 4.465-18.144 4.465-27.556 0-.552-.447-1-1-1h-36c-.553 0-1 .492-1 1.044 0 .923.019 1.898.058 2.956h-1.058c-6.065 0-11 4.935-11 11s4.935 11 11 11h4.657c.257.855.524 1.708.808 2.556l1.148 3.444h-16.613c-.553 0-1 .448-1 1v2c0 2.757 2.243 5 5 5h2v3c0 .552.447 1 1 1h46c.553 0 1-.448 1-1v-3h2c2.757 0 5-2.243 5-5v-2c0-.552-.447-1-1-1zm-42.638-4.076c-.354-1.062-.685-2.13-.997-3.203-.124-.427-.515-.721-.96-.721h-5.405c-4.963 0-9-4.038-9-9s4.037-9 9-9h2.1c.273 0 .534-.112.724-.309.188-.198.288-.464.275-.737-.049-1.064-.079-2.038-.092-2.954h33.988c-.1 8.826-1.563 17.543-4.356 25.923l-1.36 4.077h-22.558zm34.638 14.076h-44v-2h44zm7-7c0 1.654-1.346 3-3 3h-52c-1.654 0-3-1.346-3-3v-1h17 24 17z"/><path d="m15.38 27.908c-.048-.514-.48-.908-.996-.908h-2.384c-3.859 0-7 3.14-7 7s3.141 7 7 7h4.357c.306 0 .595-.14.785-.38.189-.24.259-.554.188-.852-.924-3.874-1.58-7.864-1.95-11.86zm-3.38 11.092c-2.757 0-5-2.243-5-5s2.243-5 5-5h1.478c.348 3.364.892 6.718 1.623 10z"/><path d="m38 7h-12c-1.654 0-3 1.346-3 3s1.346 3 3 3h12c.552 0 1 .449 1 1v3h2v-3c0-1.654-1.346-3-3-3h-12c-.552 0-1-.449-1-1s.448-1 1-1h12c1.654 0 3-1.346 3-3s-1.346-3-3-3h-12c-.552 0-1-.449-1-1v-1h-2v1c0 1.654 1.346 3 3 3h12c.552 0 1 .449 1 1s-.448 1-1 1z"/></g></svg>